<?xml version="1.0" standalone="no"?>
<!DOCTYPE svg PUBLIC "-//W3C//DTD SVG 20010904//EN"
 "http://www.w3.org/TR/2001/REC-SVG-20010904/DTD/svg10.dtd">
<svg version="1.0" xmlns="http://www.w3.org/2000/svg"
 width="577.000000pt" height="577.000000pt" viewBox="0 0 577.000000 577.000000"
 preserveAspectRatio="xMidYMid meet">
<metadata>
Created by potrace 1.14, written by Peter Selinger 2001-2017
</metadata>
<g transform="translate(0.000000,577.000000) scale(0.100000,-0.100000)"
fill="#000000" stroke="none">
<path d="M550 5243 c-1 -41 -1 -4339 0 -4413 l0 -46 37 4 c36 5 37 4 23 -14
-14 -18 -14 -18 5 -3 17 14 52 16 218 17 123 0 197 -3 197 -9 0 -6 -4 -8 -8
-5 -5 3 -9 -2 -9 -11 0 -13 4 -12 18 5 10 13 29 22 45 22 27 0 27 0 8 -22
l-19 -23 25 21 c24 20 37 21 223 22 123 0 197 -3 197 -9 0 -6 -4 -8 -8 -5 -5
3 -9 -2 -9 -11 0 -13 4 -12 18 5 10 13 29 22 45 22 27 0 27 0 8 -22 l-19 -23
25 21 c24 20 37 21 223 22 123 0 197 -3 197 -9 0 -6 -4 -8 -8 -5 -5 3 -9 -2
-9 -11 0 -13 4 -12 18 5 10 13 29 22 45 22 27 0 27 0 8 -22 l-19 -23 25 21
c24 20 37 21 223 22 123 0 197 -3 197 -9 0 -6 -4 -8 -8 -5 -5 3 -9 -2 -9 -11
0 -13 4 -12 18 5 10 13 29 22 45 22 27 0 27 0 8 -22 l-19 -23 25 21 c24 20 37
21 223 22 123 0 197 -3 197 -9 0 -6 -4 -8 -8 -5 -5 3 -9 -2 -9 -11 0 -13 4
-12 18 5 10 13 29 22 45 22 27 0 27 0 8 -22 l-19 -23 25 21 c24 20 37 21 223
22 123 0 197 -3 197 -9 0 -6 -4 -8 -8 -5 -5 3 -9 -2 -9 -11 0 -13 4 -12 18 5
10 13 29 22 45 22 27 0 27 0 8 -22 l-19 -23 25 21 c24 20 37 21 223 22 123 0
197 -3 197 -9 0 -6 -4 -8 -8 -5 -5 3 -9 -2 -9 -11 0 -13 4 -12 18 5 10 13 29
22 45 22 27 0 27 0 8 -22 l-19 -23 25 21 c24 20 37 21 223 22 123 0 197 -3
197 -9 0 -6 -4 -8 -8 -5 -5 3 -9 -2 -9 -11 0 -13 4 -12 18 5 10 13 29 22 45
22 27 0 27 0 8 -23 l-19 -22 25 21 c24 20 37 21 223 22 123 0 197 -3 197 -9 0
-6 -4 -8 -8 -5 -5 3 -9 -2 -9 -11 0 -13 4 -12 18 5 10 13 29 22 45 22 27 0 27
0 8 -22 l-19 -23 25 21 c14 11 35 21 48 22 21 1 22 -1 10 -16 -8 -11 -5 -10
11 3 13 11 26 19 30 17 6 -2 19 4316 13 4431 l-3 57 -2244 0 -2245 0 0 -37z"/>
<path d="M575 770 c3 -5 8 -10 11 -10 2 0 4 5 4 10 0 6 -5 10 -11 10 -5 0 -7
-4 -4 -10z"/>
<path d="M665 770 c-3 -6 1 -7 9 -4 18 7 21 14 7 14 -6 0 -13 -4 -16 -10z"/>
<path d="M730 769 c0 -5 5 -7 10 -4 6 3 10 8 10 11 0 2 -4 4 -10 4 -5 0 -10
-5 -10 -11z"/>
<path d="M905 770 c-3 -6 1 -7 9 -4 18 7 21 14 7 14 -6 0 -13 -4 -16 -10z"/>
<path d="M1145 770 c-3 -6 1 -7 9 -4 18 7 21 14 7 14 -6 0 -13 -4 -16 -10z"/>
<path d="M1210 769 c0 -5 5 -7 10 -4 6 3 10 8 10 11 0 2 -4 4 -10 4 -5 0 -10
-5 -10 -11z"/>
<path d="M1385 770 c-3 -6 1 -7 9 -4 18 7 21 14 7 14 -6 0 -13 -4 -16 -10z"/>
<path d="M1625 770 c-3 -6 1 -7 9 -4 18 7 21 14 7 14 -6 0 -13 -4 -16 -10z"/>
<path d="M1690 769 c0 -5 5 -7 10 -4 6 3 10 8 10 11 0 2 -4 4 -10 4 -5 0 -10
-5 -10 -11z"/>
<path d="M1865 770 c-3 -6 1 -7 9 -4 18 7 21 14 7 14 -6 0 -13 -4 -16 -10z"/>
<path d="M2105 770 c-3 -6 1 -7 9 -4 18 7 21 14 7 14 -6 0 -13 -4 -16 -10z"/>
<path d="M2170 769 c0 -5 5 -7 10 -4 6 3 10 8 10 11 0 2 -4 4 -10 4 -5 0 -10
-5 -10 -11z"/>
<path d="M2345 770 c-3 -6 1 -7 9 -4 18 7 21 14 7 14 -6 0 -13 -4 -16 -10z"/>
<path d="M2585 770 c-3 -6 1 -7 9 -4 18 7 21 14 7 14 -6 0 -13 -4 -16 -10z"/>
<path d="M2650 769 c0 -5 5 -7 10 -4 6 3 10 8 10 11 0 2 -4 4 -10 4 -5 0 -10
-5 -10 -11z"/>
<path d="M2825 770 c-3 -6 1 -7 9 -4 18 7 21 14 7 14 -6 0 -13 -4 -16 -10z"/>
<path d="M3065 770 c-3 -6 1 -7 9 -4 18 7 21 14 7 14 -6 0 -13 -4 -16 -10z"/>
<path d="M3130 769 c0 -5 5 -7 10 -4 6 3 10 8 10 11 0 2 -4 4 -10 4 -5 0 -10
-5 -10 -11z"/>
<path d="M3305 770 c-3 -6 1 -7 9 -4 18 7 21 14 7 14 -6 0 -13 -4 -16 -10z"/>
<path d="M3545 770 c-3 -6 1 -7 9 -4 18 7 21 14 7 14 -6 0 -13 -4 -16 -10z"/>
<path d="M3610 769 c0 -5 5 -7 10 -4 6 3 10 8 10 11 0 2 -4 4 -10 4 -5 0 -10
-5 -10 -11z"/>
<path d="M3785 770 c-3 -6 1 -7 9 -4 18 7 21 14 7 14 -6 0 -13 -4 -16 -10z"/>
<path d="M4025 770 c-3 -6 1 -7 9 -4 18 7 21 14 7 14 -6 0 -13 -4 -16 -10z"/>
<path d="M4090 769 c0 -5 5 -7 10 -4 6 3 10 8 10 11 0 2 -4 4 -10 4 -5 0 -10
-5 -10 -11z"/>
<path d="M4265 770 c-3 -6 1 -7 9 -4 18 7 21 14 7 14 -6 0 -13 -4 -16 -10z"/>
<path d="M4505 770 c-3 -6 1 -7 9 -4 18 7 21 14 7 14 -6 0 -13 -4 -16 -10z"/>
<path d="M4570 769 c0 -5 5 -7 10 -4 6 3 10 8 10 11 0 2 -4 4 -10 4 -5 0 -10
-5 -10 -11z"/>
<path d="M4745 770 c-3 -6 1 -7 9 -4 18 7 21 14 7 14 -6 0 -13 -4 -16 -10z"/>
<path d="M960 750 c-9 -6 -10 -10 -3 -10 6 0 15 5 18 10 8 12 4 12 -15 0z"/>
<path d="M1440 750 c-9 -6 -10 -10 -3 -10 6 0 15 5 18 10 8 12 4 12 -15 0z"/>
<path d="M1920 750 c-9 -6 -10 -10 -3 -10 6 0 15 5 18 10 8 12 4 12 -15 0z"/>
<path d="M2400 750 c-9 -6 -10 -10 -3 -10 6 0 15 5 18 10 8 12 4 12 -15 0z"/>
<path d="M2880 750 c-9 -6 -10 -10 -3 -10 6 0 15 5 18 10 8 12 4 12 -15 0z"/>
<path d="M3360 750 c-9 -6 -10 -10 -3 -10 6 0 15 5 18 10 8 12 4 12 -15 0z"/>
<path d="M3840 750 c-9 -6 -10 -10 -3 -10 6 0 15 5 18 10 8 12 4 12 -15 0z"/>
<path d="M4320 750 c-9 -6 -10 -10 -3 -10 6 0 15 5 18 10 8 12 4 12 -15 0z"/>
<path d="M4800 750 c-9 -6 -10 -10 -3 -10 6 0 15 5 18 10 8 12 4 12 -15 0z"/>
</g>
</svg>
